PathFileType	4	(X/Y/Z)	C:\Github\FootballMatch-and-Movement-Analysis\output\test4 Exam_2026-03-06_143128_tvc1_Sports2D\test4 Exam_2026-03-06_143128_tvc1_Sports2D_m_person00.trc
DataRate	CameraRate	NumFrames	NumMarkers	Units	OrigDataRate	OrigDataStartFrame	OrigNumFrames
30.0	30.0	10	22	m	30.0	280	320
Frame#	Time	Hip			RHip			RKnee			RAnkle			RBigToe			RSmallToe			RHeel			LHip			LKnee			LAnkle			LBigToe			LSmallToe			LHeel			Neck			Head			Nose			RShoulder			RElbow			RWrist			LShoulder			LElbow			LWrist			
		X1	Y1	Z1	X2	Y2	Z2	X3	Y3	Z3	X4	Y4	Z4	X5	Y5	Z5	X6	Y6	Z6	X7	Y7	Z7	X8	Y8	Z8	X9	Y9	Z9	X10	Y10	Z10	X11	Y11	Z11	X12	Y12	Z12	X13	Y13	Z13	X14	Y14	Z14	X15	Y15	Z15	X16	Y16	Z16	X17	Y17	Z17	X18	Y18	Z18	X19	Y19	Z19	X20	Y20	Z20	X21	Y21	Z21	X22	Y22	Z22
280	9.362591431556949	0.7733365804518906	0.7949901898893917	0.0	0.7632886133189213	0.7614421539500594	-0.105	0.7723976938040843	0.4041996906853462	-0.0886	0.8826522383199997	0.02388593194902642	-0.0972	0.7477753501693583	-0.029583740023511378	-0.0766	0.7768196205328728	-0.018533538730514228	-0.12	0.9336619952948263	-0.010001928778491783	-0.0883	0.8045018013643839	0.7782734481187582	0.105	0.7719717606805367	0.39997426383085916	0.0886	1.1108314728826039	0.26921515044803773	0.0972	1.1033273534400996	0.07148388027693621	0.0766	1.1301041006614998	0.09517256630006136	0.12	1.1616686945018277	0.28744278790372835	0.0883	0.7108364455968399	1.3072080766443173	0.0	0.6749459847746931	1.5280220367195059	0.0	0.5949974724605825	1.4057753968486868	0.0	0.71236619375664	1.2552310024759104	-0.2016	0.7550629758490951	1.0349843804981993	-0.1613	0.6688270694647976	0.8330147383555385	-0.12	0.7567429955593303	1.2713684753167556	0.2016	0.7964890110439079	1.179290350035224	0.1613	0.6611199747585473	1.1599598680550784	0.12
281	9.396029258098222	0.7732425334540721	0.7949603569283457	0.0	0.7696193160146974	0.7665174834108386	-0.105	0.7696757708919421	0.4044418218516074	-0.0886	0.8828825933692366	0.03107066533098475	-0.0972	0.7593642567917634	-0.02032289407447962	-0.0766	0.7828674372078605	-0.016300720554627314	-0.12	0.9352926820663888	-0.003114187937694287	-0.0883	0.8060718681858386	0.7810422305647962	0.105	0.7775926212636679	0.4026164783074377	0.0886	1.1110627895662648	0.2676662368065892	0.0972	1.1033438859673645	0.07061849788968824	0.0766	1.1281079371586944	0.09289435863481053	0.12	1.1588100449454466	0.2856970786234985	0.0883	0.7147679877213019	1.3079023028378738	0.0	0.6749752006669969	1.5297353834809555	0.0	0.5955698439792934	1.4069047497160934	0.0	0.7155093500036904	1.257478060691629	-0.2016	0.7580115339631953	1.0383101525603555	-0.1613	0.6722358954851789	0.8301013175028409	-0.12	0.757570210887384	1.271363108993278	0.2016	0.7966198077118044	1.1801800508982565	0.1613	0.6615507102095418	1.1595270094158794	0.12
282	9.429467084639498	0.7741002606522037	0.7939396848239518	0.0	0.7789328410017109	0.7717792640308312	-0.105	0.7687445965193712	0.40455450248863706	-0.0886	0.8827866541802787	0.037125031067678525	-0.0972	0.7687121755910806	-0.012252948216812956	-0.0766	0.7864061800834455	-0.015034904176355402	-0.12	0.9335197629420746	0.003282770714781069	-0.0883	0.8068560022505971	0.7838416242403822	0.105	0.7775608308634462	0.4050929340706592	0.0886	1.1108120890769277	0.26475579672692995	0.0972	1.1039577725645944	0.07299111968292023	0.0766	1.1294642424090708	0.0929640658520824	0.12	1.1578969549101825	0.2825769666867515	0.0883	0.7182932324112323	1.3076248683134533	0.0	0.6751781550228966	1.531535655209723	0.0	0.5975450039103493	1.40657722629333	0.0	0.720476581301299	1.2579655803618148	-0.2016	0.7610198218323292	1.0448227288157754	-0.1613	0.677585982349735	0.8282610892378219	-0.12	0.7582177215401369	1.2696498192496577	0.2016	0.796810569912565	1.1802572999139966	0.1613	0.6603638005618288	1.159178997870686	0.12
283	9.462904911180772	0.7758315881458854	0.7932178618818174	0.0	0.7833294992244509	0.7740551259903597	-0.105	0.7711672755145657	0.40446801050259484	-0.0886	0.8823899566962362	0.03715946826426887	-0.0972	0.7661380269639798	-0.015561813074647933	-0.0766	0.7852815875673885	-0.01625498271465696	-0.12	0.9307245024029807	0.004898748421120298	-0.0883	0.8074862268098366	0.7852539259487261	0.105	0.7721755995718713	0.4050587901677563	0.0886	1.110679086908284	0.26292946823390057	0.0972	1.103475980525281	0.07461462989798064	0.0766	1.1309006954210206	0.09454609979310165	0.12	1.1591344383621178	0.28134774433702264	0.0883	0.7192865718871604	1.3068214176246493	0.0	0.6750471510744095	1.532491508426199	0.0	0.6001773890096881	1.4058682397497533	0.0	0.7239806897801028	1.2564531233380454	-0.2016	0.7636632991335016	1.0494484815583653	-0.1613	0.6854171203239312	0.8269075042966759	-0.12	0.758232965929684	1.2677774786764215	0.2016	0.7975463206748308	1.1803265422473492	0.1613	0.659582202487824	1.1589020335865556	0.12
284	9.496342737722047	0.7773285977080281	0.7933549540274684	0.0	0.782591982824164	0.7753074963630903	-0.105	0.7732351456213582	0.4041472267462245	-0.0886	0.8819878211267651	0.03460366276861544	-0.0972	0.7627547530461953	-0.020963258533239913	-0.0766	0.7845401526625407	-0.015457563241481101	-0.12	0.9298131950314601	0.0036471507434992566	-0.0883	0.8076424195982496	0.7866697812351892	0.105	0.7682551860021469	0.40362132394625605	0.0886	1.1115968196192063	0.26264122537966506	0.0972	1.102351646227648	0.07413729799296832	0.0766	1.1306543990406157	0.09566683889882413	0.12	1.1601745971632167	0.2817608581855064	0.0883	0.7190966473599332	1.3055263494649822	0.0	0.6744444011470441	1.5328679046408857	0.0	0.6018543176522088	1.4060965646739736	0.0	0.7243969286653633	1.253755828854582	-0.2016	0.7658145924447709	1.0503892593001325	-0.1613	0.6924040911237076	0.8257048281853131	-0.12	0.7584828980180794	1.2657231893943341	0.2016	0.7988150877831157	1.1802961262724763	0.1613	0.659209041501985	1.158385520543826	0.12
285	9.529780564263321	0.7777512961758357	0.7934105485133433	0.0	0.7828970410168563	0.7777839399009211	-0.105	0.7724470451836635	0.404849489096234	-0.0886	0.8814261487519589	0.033473181670562284	-0.0972	0.7658707226571575	-0.019987951942876142	-0.0766	0.7858174683534449	-0.011470665348033928	-0.12	0.9303570478897707	0.0027434634947583565	-0.0883	0.8064349345449525	0.7888861045572135	0.105	0.7685912509127298	0.40359938089357417	0.0886	1.1128267552754132	0.2602860190809551	0.0972	1.1009872762456085	0.07283103839276359	0.0766	1.1296826500649457	0.09450373806806145	0.12	1.1599241728066352	0.27877676269287954	0.0883	0.7200899126221139	1.3038477267594715	0.0	0.6737510598350012	1.5332974257942804	0.0	0.6022350320825212	1.4068643317165133	0.0	0.7242990969363425	1.2517782779870843	-0.2016	0.7678528275204743	1.0498761705664554	-0.1613	0.6952726450129273	0.8258497284716743	-0.12	0.759403221193953	1.263616658760746	0.2016	0.8001292233464656	1.1795079942728435	0.1613	0.6593094146856537	1.1577539197734135	0.12
286	9.563218390804597	0.7776100925288246	0.7923987664272562	0.0	0.7841605057073385	0.7784324787534951	-0.105	0.7715749884710061	0.40643956163900413	-0.0886	0.8802413309611289	0.03279274777145998	-0.0972	0.7671893955542317	-0.01984044374591045	-0.0766	0.7837503563618566	-0.008830783532491627	-0.12	0.930649184121174	0.0019990817031712085	-0.0883	0.8053062454088528	0.7889312697534914	0.105	0.7709376476533983	0.4045479516087893	0.0886	1.1131105650836286	0.25599745149189235	0.0972	1.099600863240788	0.07030307106096993	0.0766	1.128712047910083	0.090391873175049	0.12	1.1592283212512373	0.2732856784877426	0.0883	0.721801463465317	1.302802975443632	0.0	0.6741350767779487	1.5338821499200699	0.0	0.6016791341374509	1.4073350964902678	0.0	0.7254622382664961	1.2521044262205856	-0.2016	0.769178853177291	1.0493757461684146	-0.1613	0.6943316732391601	0.8282584609180325	-0.12	0.7601851456068354	1.262894474477601	0.2016	0.8010955422250171	1.1785924236234422	0.1613	0.6607047790912574	1.1573402305046532	0.12
287	9.596656217345872	0.7775340716451772	0.7905148032903679	0.0	0.7807953688120625	0.7748845686121316	-0.105	0.7723731409209837	0.40685649395948836	-0.0886	0.8791074266844838	0.031682398393709725	-0.0972	0.7633212995174852	-0.026101903656261586	-0.0766	0.7785964913023156	-0.009436875726156084	-0.12	0.9304243818098185	0.0013137148878144683	-0.0883	0.8064630951559018	0.785329542031542	0.105	0.7738769946306349	0.4042572010873094	0.0886	1.1126616935334979	0.2537967037998699	0.0972	1.0985021811174966	0.06585967233227924	0.0766	1.1265789009373692	0.08485785694886008	0.12	1.1589574064380186	0.27140589233373713	0.0883	0.7224690272261146	1.3033383920576171	0.0	0.6762310792105888	1.5343121132830624	0.0	0.6006573542861715	1.4076831458786376	0.0	0.7261441876743249	1.2541116243422274	-0.2016	0.7691622079540649	1.0487832046670111	-0.1613	0.6926709140467802	0.8309285589667741	-0.12	0.76051201669767	1.2639124970418407	0.2016	0.8014753059921609	1.178417008483105	0.1613	0.6627840365474319	1.1569187996348402	0.12
288	9.630094043887146	0.7775373310026239	0.7887942274990666	0.0	0.7741083484457305	0.7699328833778334	-0.105	0.7727990154667039	0.405501773047495	-0.0886	0.879746627319052	0.03156133353108625	-0.0972	0.761386286419508	-0.030143265770245842	-0.0766	0.7768500392214531	-0.009964464087870717	-0.12	0.9303001750147888	0.001956641606280296	-0.0883	0.8087630631031403	0.7808006664328762	0.105	0.7777649516245466	0.4031205454554552	0.0886	1.1121187173345082	0.2531963345788398	0.0972	1.0972768014342376	0.06143388489505109	0.0766	1.1227572797134402	0.08059218156195254	0.12	1.1592232339984732	0.2716843339734613	0.0883	0.7219682713209326	1.3052873935135405	0.0	0.679137836578672	1.5344774337247955	0.0	0.5999801020337633	1.4082444521438928	0.0	0.724668742587314	1.2558227819204941	-0.2016	0.7687326954785261	1.048320935733294	-0.1613	0.6924659149972558	0.8300465024154892	-0.12	0.7613720620185628	1.265384122809333	0.2016	0.8011523045945678	1.178721573814343	0.1613	0.6643690677784262	1.1559730348855484	0.12
289	9.663531870428422	0.7774167594040924	0.7882380508486658	0.0	0.7715270878812861	0.7671064427546062	-0.105	0.7720091701891972	0.40355320731073996	-0.0886	0.8818235823982478	0.03261659774639215	-0.0972	0.7633470534756246	-0.024829085071466236	-0.0766	0.7793425581213292	-0.008791209945168804	-0.12	0.9298734491459378	0.00363098323345849	-0.0883	0.8086927557455459	0.778194402260351	0.105	0.7809198363146964	0.402749941389134	0.0886	1.1113564359341894	0.25021299118875245	0.0972	1.095638515581037	0.0592572354472207	0.0766	1.1194199853247915	0.07861840209448384	0.12	1.1595447481425571	0.2672405886824994	0.0883	0.7214918575120426	1.3073097708296515	0.0	0.681642505512132	1.534575929011612	0.0	0.600477606957579	1.4087524640235196	0.0	0.7226374201459451	1.2563139365445049	-0.2016	0.7683335983186181	1.0477811241812551	-0.1613	0.6926730837958426	0.8255962501856253	-0.12	0.762836061330053	1.2666312146547063	0.2016	0.800627164133265	1.1788621223426954	0.1613	0.6654538093316014	1.1548703367832018	0.12
